<svg xmlns="http://www.w3.org/2000/svg" width="53" height="16" viewBox="0 0 53 16">
    <g fill="#108EE9" fill-rule="evenodd">
        <path d="M0 8a8 8 0 1 1 16 0A8 8 0 0 1 0 8zm5.881-1.795c-.18.027-.361.041-.54.041-.242 0-.483-.026-.723-.084a3.279 3.279 0 0 1-1.047-.471c-.042-.028-.12-.056-.148-.037-.038.026-.059.098-.06.15-.005.305-.002.61-.002.913v1.124l-.001 2.413c0 .165.057.3.198.388.591.369 1.238.53 1.935.501a5.935 5.935 0 0 0 1.579-.31c.57-.185 1.136-.385 1.705-.576.498-.166 1.004-.302 1.529-.352.765-.072 1.486.067 2.147.475.153.094.217.056.217-.119v-2.42l.001-2.03a.5.5 0 0 0-.243-.441c-.864-.585-1.807-.658-2.783-.386-.57.16-1.125.373-1.68.58-.683.253-1.356.533-2.084.641zM21.356 4.161h.121l-.02.005c1.985.07 3.575 1.721 3.575 3.753 0 2.036-1.595 3.69-3.586 3.754l.031.007h-2.81V4.161h2.646l.015-.001.028.001zm9.622-.001c1.734 0 3.14 1.407 3.18 3.157h.003v4.362H32.57v-1.613h-3.184v1.613h-1.59V7.317h.003c.04-1.75 1.446-3.157 3.179-3.157zm18.264 0c1.734 0 3.14 1.407 3.18 3.157h.004v4.362h-1.592v-1.613h-3.183v1.613H46.06V7.317h.003c.04-1.75 1.446-3.157 3.18-3.157zm-9.127 0c1.674 0 3.043 1.311 3.17 2.977l.01.18h.003v4.362h-1.591V7.38l-.008-.146a1.601 1.601 0 0 0-1.584-1.46c-.827 0-1.506.641-1.584 1.46l-.007.146v4.299h-1.592V7.317c.043-1.75 1.45-3.157 3.183-3.157zm-19.86 1.616v.3l.003-.001v3.686h-.003v.3l1.209-.004A2.13 2.13 0 0 0 23.44 7.92a2.13 2.13 0 0 0-1.986-2.138l-1.2-.005zm10.723-.001c-.876 0-1.586.718-1.591 1.605v1.071h3.183v-1.07a1.603 1.603 0 0 0-1.592-1.606zm18.264 0c-.875 0-1.585.718-1.59 1.605l-.001 1.071h3.183v-1.07a1.603 1.603 0 0 0-1.592-1.606z"/>
    </g>
</svg>
