<svg xmlns="http://www.w3.org/2000/svg" width="16" height="16" viewBox="0 0 16 16">
    <g fill="none" fill-rule="evenodd">
        <path fill="#FF5D55" d="M7.385 2.998a.737.737 0 0 1 1.23 0l5.941 9.255c.072.113.11.242.11.375 0 .39-.324.705-.724.705H2.058a.74.74 0 0 1-.384-.107.695.695 0 0 1-.23-.973l5.941-9.255z"/>
        <path fill="#FFF" d="M8 10.667A.667.667 0 1 1 8 12a.667.667 0 0 1 0-1.333zM8 6c.368 0 .667.298.667.667v2.666a.667.667 0 0 1-1.334 0V6.667C7.333 6.298 7.632 6 8 6z"/>
    </g>
</svg>
