<svg xmlns="http://www.w3.org/2000/svg" width="20" height="20" viewBox="0 0 20 20">
    <path fill="#A4A4A4" fill-rule="evenodd" d="M15 1.667c.92 0 1.667.746 1.667 1.666v13.334c0 .92-.747 1.666-1.667 1.666H5c-.92 0-1.667-.746-1.667-1.666v-2.5H2.5a.833.833 0 0 1 0-1.667h.833v-5H2.5a.833.833 0 1 1 0-1.667h.833v-2.5c0-.92.747-1.666 1.667-1.666h10zm-5 8.666c-1.38 0-2.5 1.008-2.5 2.25v.75h5v-.75c0-1.242-1.12-2.25-2.5-2.25zm0-3.666c-.69 0-1.25.413-1.25 1.333 0 .92.56 2 1.25 2s1.25-1.08 1.25-2c0-.92-.56-1.333-1.25-1.333z" opacity=".5"/>
</svg>
