<svg xmlns="http://www.w3.org/2000/svg" width="28" height="28" viewBox="0 0 28 28">
    <path fill="#108EE9" fill-rule="evenodd" d="M21 2.333a2.333 2.333 0 0 1 2.333 2.334v18.666A2.333 2.333 0 0 1 21 25.667H7a2.333 2.333 0 0 1-2.333-2.334v-3.5H3.5a1.167 1.167 0 1 1 0-2.333h1.167v-7H3.5a1.167 1.167 0 1 1 0-2.333h1.167v-3.5A2.333 2.333 0 0 1 7 2.333h14zm-7 12.134c-1.933 0-3.5 1.41-3.5 3.15v1.05h7v-1.05c0-1.74-1.567-3.15-3.5-3.15zm0-5.134c-.966 0-1.75.578-1.75 1.867 0 1.289.784 2.8 1.75 2.8s1.75-1.511 1.75-2.8-.784-1.867-1.75-1.867z"/>
</svg>
