<svg xmlns="http://www.w3.org/2000/svg" width="30" height="20" viewBox="0 0 30 20">
    <g fill="none" fill-rule="evenodd">
        <rect width="30" height="20" fill="#FFF" rx="4"/>
        <rect width="29" height="19" x=".5" y=".5" stroke="#E3E3E3" rx="4"/>
        <path fill="#EC1B3D" d="M10.656 3a.437.437 0 0 1 .13.102c.296.298.593.595.897.885.629.599 1.248 1.208 1.872 1.812.026.025.052.05.076.078.16.183.339.347.516.512.222.206.442.415.636.647.132.159.256.323.385.484.33.412.65.832.976 1.248l.782.996a124.734 124.734 0 0 0 .694.874c.068.084.135.168.204.25.018.022.039.042.06.065.015-.043.034-.08.031-.124a.309.309 0 0 0-.031-.107 1.174 1.174 0 0 0-.074-.135.229.229 0 0 1-.03-.105c-.001-.024.001-.028.024-.035.04-.012.082-.023.125-.03l.175-.028a.283.283 0 0 0 .1-.036c.014-.008.012-.013.007-.021a2.316 2.316 0 0 0-.066-.086.365.365 0 0 1-.072-.119c-.008-.024-.008-.025.015-.025.056 0 .112.006.167.01.13.013.26.029.392.032.09.002.18-.006.269-.011.085-.005.17-.009.255.003.1.014.186.054.25.136.019.025.041.047.062.07a.132.132 0 0 0 .08.041c.068.011.137.021.203.04.07.021.133.051.186.101a.346.346 0 0 1 .1.203.51.51 0 0 1 .006.126c-.001.015-.013.021-.025.01-.019-.017-.04-.035-.053-.056a.264.264 0 0 0-.151-.113.441.441 0 0 0-.24-.012c-.067.016-.127.044-.163.107a.23.23 0 0 0 .275.064l.088-.038a.021.021 0 0 1 .016-.001.238.238 0 0 1-.158.195c-.065.021-.133.028-.2.035-.055.007-.11.012-.165.023a.768.768 0 0 0-.22.069.71.71 0 0 0-.116.075l-.152.123c-.053.043-.108.084-.161.128-.056.047-.115.09-.172.135-.074.059-.148.12-.223.178l-.124.097c-.075.06-.152.117-.226.178-.06.049-.122.094-.184.14-.102.079-.203.157-.306.234-.068.05-.137.1-.211.142-.208.118-.43.199-.659.268l-.697.211-.555.171-.82.253-.69.212c-.305.093-.608.187-.912.278-.262.078-.523.156-.786.23-.048.014-.097.025-.145.042-.034.012-.071.016-.107.023-.024.004-.026 0-.024-.023a.279.279 0 0 1 .08-.169.716.716 0 0 1 .15-.12c.088-.057.182-.1.277-.143l.264-.115a.995.995 0 0 0 .145-.084c.009-.006.015-.016.024-.026a.135.135 0 0 0-.073-.03.588.588 0 0 0-.145.011c-.067.013-.13.033-.194.056a3.675 3.675 0 0 0-.251.106c-.072.032-.143.065-.215.095-.065.026-.127.058-.19.084-.096.04-.19.082-.286.12-.08.031-.16.063-.243.09-.034.011-.07.018-.105.026-.001-.001-.003-.004-.002-.005a.6.6 0 0 1 .168-.248c.093-.087.198-.157.307-.221l.706-.413c.145-.085.29-.17.428-.267.022-.015.044-.028.059-.05l.027-.015 1.151-.701a.666.666 0 0 0 .02-.013c.005-.003.01-.008.006-.014-.009-.013-.015-.027-.032-.033a.796.796 0 0 1-.297-.195c-.102-.104-.204-.208-.308-.31-.305-.298-.604-.603-.914-.897l-.08-.079a.633.633 0 0 1-.16-.258 1.322 1.322 0 0 1-.043-.637c.007-.045.013-.048.058-.04a.185.185 0 0 1 .042.015.282.282 0 0 1 .08.062c.025.025.048.053.073.077.303.297.6.6.912.89.095.087.19.176.278.272.057.062.113.124.174.183.04.039.081.076.13.104.016.009.031.019.051.018a.598.598 0 0 0-.017-.18.587.587 0 0 0-.158-.267 5.781 5.781 0 0 0-.212-.208 32.914 32.914 0 0 1-.748-.72c-.259-.258-.516-.517-.78-.77a.814.814 0 0 1-.199-.31 1.28 1.28 0 0 1-.068-.589.572.572 0 0 1 .028-.133c.013-.034.015-.035.05-.023.029.01.055.026.08.045.07.051.13.114.19.176.074.078.145.16.224.234.13.122.257.248.385.373.332.325.662.652 1.003.967.061.056.123.112.19.162.009.007.018.017.03.017.007-.009.004-.017.004-.025a.614.614 0 0 0-.105-.32 1.297 1.297 0 0 0-.2-.228c-.09-.085-.183-.167-.272-.254a89.904 89.904 0 0 0-.895-.872 31.259 31.259 0 0 1-.766-.754 2.434 2.434 0 0 1-.152-.171.658.658 0 0 1-.146-.4c-.005-.142-.004-.284-.003-.427 0-.034.003-.068.005-.102a.172.172 0 0 1 .012-.053c.012-.028.026-.034.054-.02.026.013.049.032.07.053l.277.269 1.26 1.215c.139.133.279.263.408.404.074.08.15.16.228.235.049.047.098.092.154.13a.153.153 0 0 0 .06.03c.009-.01.008-.022.009-.033a.493.493 0 0 0-.017-.163.508.508 0 0 0-.14-.222c-.047-.047-.097-.09-.142-.138a10.77 10.77 0 0 0-.398-.404l-.9-.877c-.349-.34-.694-.684-1.047-1.02a.95.95 0 0 1-.131-.152.684.684 0 0 1-.115-.278 2.21 2.21 0 0 1-.022-.262 2.76 2.76 0 0 1 .005-.378.473.473 0 0 1 .02-.108c.008-.023.01-.024.035-.02.05.006.09.03.124.066l.073.077c.436.429.87.862 1.309 1.288.32.311.637.625.96.933a7.326 7.326 0 0 0 .36.325c.013.009.018.007.02-.008.003-.025.005-.05.004-.075a.483.483 0 0 0-.084-.235 1.128 1.128 0 0 0-.194-.22 18.69 18.69 0 0 1-.704-.676c-.505-.506-1.01-1.01-1.525-1.507-.13-.125-.256-.253-.388-.375-.058-.053-.116-.106-.168-.166a.766.766 0 0 1-.197-.415 3.638 3.638 0 0 1-.02-.597c.002-.05.008-.1.02-.148.005-.022.013-.041.033-.053h.02zm8.258 7.363c.016.033.03.058.042.085.009.018.02.026.04.03a.603.603 0 0 0 .265-.026.06.06 0 0 0 .033-.038l-.38-.051zm-1.296-5.484c.026.062.05.124.072.188.075.214.143.431.217.646.233.669.463 1.338.694 2.008.028.082.055.164.072.25a.696.696 0 0 1-.03.374c-.028.081-.072.155-.11.232-.113.232-.23.463-.344.696l-.296.6c-.06.125-.122.248-.183.372-.01.021-.022.026-.045.019a.159.159 0 0 1-.083-.065c-.043-.066-.094-.126-.143-.188l-.164-.21-.148-.184c-.128-.167-.266-.326-.39-.497a1.005 1.005 0 0 1-.116-.207 6.766 6.766 0 0 1-.21-.598.682.682 0 0 1-.01-.354c.036-.162.097-.315.188-.455a.382.382 0 0 1 .074-.089c.024-.02.03-.019.049.007.03.04.05.086.069.132.043.104.08.21.112.319.06.205.142.403.218.602l.134.343.01.027c.05-.046.07-.101.08-.162a.747.747 0 0 0-.017-.264 3.45 3.45 0 0 0-.157-.505c-.072-.196-.151-.39-.219-.588a2.402 2.402 0 0 1-.103-.385.666.666 0 0 1 .022-.333 2.12 2.12 0 0 1 .134-.317.526.526 0 0 1 .089-.128c.052-.052.051-.044.082.009.048.084.08.175.114.266.099.265.184.535.273.803.048.145.095.29.152.431.013.034.025.069.048.098.019.022.019.022.038.001a.324.324 0 0 0 .076-.207.786.786 0 0 0-.038-.252c-.038-.133-.09-.262-.137-.393-.1-.287-.207-.572-.299-.863a4.67 4.67 0 0 1-.108-.394.624.624 0 0 1 .038-.38c.021-.052.048-.101.072-.152l.086-.185a.142.142 0 0 1 .104-.085c.02-.005.026.001.033.017z"/>
        <path fill="#163A63" d="M12.364 12.87c.111.013.222.03.332.057-.015.023-.037.036-.059.051a6.36 6.36 0 0 1-.428.267c-.235.138-.471.274-.706.413a1.764 1.764 0 0 0-.307.22.6.6 0 0 0-.168.249l.002.005a.062.062 0 0 0-.026.034 1.907 1.907 0 0 0-.116.765c.012.198.052.39.143.567a.786.786 0 0 0 .563.43c.167.04.337.047.508.037.102-.006.203-.023.303-.04.03-.006.061-.01.091-.015.069-.014.105-.053.108-.124.002-.05 0-.098 0-.147v-.49c0-.035.003-.035-.025-.035l-.208-.004-.755-.012c-.033 0-.04 0-.043-.02v-.053c0-.034.01-.047.044-.06.1-.035.199-.075.297-.116.158-.066.315-.135.476-.194.14-.052.283-.1.431-.124a.65.65 0 0 1 .284.004c.107.03.177.097.215.201a.687.687 0 0 1 .04.192c.004.08.004.16.003.239l-.01.874-.005.31c0 .02-.008.032-.022.042a.995.995 0 0 1-.144.094 1.485 1.485 0 0 1-.344.128 3.573 3.573 0 0 1-.436.078l-.204.019c-.007 0-.017-.004-.02.008h-.013a.126.126 0 0 0-.082 0h-.3c-.003-.01-.011-.006-.017-.007a3.852 3.852 0 0 1-.275-.026 1.861 1.861 0 0 1-.516-.146 1.528 1.528 0 0 1-.84-.897 2.067 2.067 0 0 1-.115-.538c-.004-.036-.006-.073-.009-.109 0-.007.004-.019-.011-.018v-.287c.015 0 .01-.012.011-.019l.009-.102c.03-.29.102-.57.235-.83.085-.165.19-.314.332-.434a1.85 1.85 0 0 1 .566-.321c.182-.066.369-.106.56-.126a2.94 2.94 0 0 1 .65.01zm7.963.033a.683.683 0 0 1 .218.045.319.319 0 0 1 .204.243.404.404 0 0 1 .008.071c0 .015.001.03.006.043v3.265c-.01.004-.006.014-.007.02-.004.038-.02.059-.057.068a.252.252 0 0 1-.061.007h-.406a.926.926 0 0 1-.204-.018.31.31 0 0 1-.155-.088c-.057-.057-.101-.125-.149-.19-.374-.515-.732-1.04-1.105-1.555-.073-.1-.146-.201-.224-.297l-.024-.027c-.009.008-.006.017-.006.024l-.02 2.083c-.001.056 0 .056-.057.06-.113.01-.227.02-.34.016a.898.898 0 0 1-.195-.024.327.327 0 0 1-.206-.14.343.343 0 0 1-.056-.153 1.939 1.939 0 0 1-.007-.16V13.12c0-.043 0-.086.002-.13.003-.048.027-.068.062-.073a.49.49 0 0 1 .071-.007l.28-.004c.083-.001.166 0 .247.023a.385.385 0 0 1 .188.127c.122.148.234.304.347.458.15.203.295.408.438.615.1.147.203.293.304.44.083.119.164.24.249.358.05.072.105.142.163.208.016.018.03.036.048.053.004.004.01.006.019.011v-2.227c.002-.028.011-.038.038-.048.033-.012.067-.01.1-.013.096-.01.192-.013.287-.008zm-3.82.374c.1.012.18.054.24.137.067.096.113.203.15.314.076.237.09.478.048.723a1.471 1.471 0 0 1-.166.468 1.27 1.27 0 0 1-.361.404.893.893 0 0 1-.225.114c-.037.012-.073.029-.11.036-.045.009-.09.02-.137.024-.042.003-.084.006-.126.007l-1.028.008h-.013c-.016-.001-.02.007-.02.02v.018l-.018 1.051-.001.031a.039.039 0 0 1-.037.032c-.157 0-.314.01-.471-.005-.043-.005-.088-.007-.128-.023a.315.315 0 0 1-.17-.136.434.434 0 0 1-.049-.185c-.008-.118-.007-.236-.007-.355v-.778c.001-.262 0-.523-.01-.785a4.193 4.193 0 0 1-.002-.334.606.606 0 0 1 .026-.166.182.182 0 0 1 .11-.112c.072-.03.148-.044.224-.059.1-.02.198-.045.297-.067.042-.01.084-.02.128-.02.054 0 .084.021.101.073.017.052.018.107.02.162.002.075 0 .15-.002.225-.005.222-.012.443-.01.665 0 .051-.006.043.044.044.155.004.311.01.467.012a1.66 1.66 0 0 0 .35-.026.628.628 0 0 0 .248-.1.516.516 0 0 0 .13-.132.513.513 0 0 0 .064-.155.672.672 0 0 0-.024-.46.52.52 0 0 0-.147-.21.42.42 0 0 0-.161-.085c-.068-.021-.137-.019-.205-.018-.072.001-.143-.003-.215-.008-.007 0-.011-.007-.018-.007-.016 0-.034-.002-.038-.018a.068.068 0 0 1 .012-.06.137.137 0 0 1 .06-.044.593.593 0 0 1 .133-.033c.162-.026.323-.06.482-.098.117-.03.233-.058.351-.077a.772.772 0 0 1 .214-.012z"/>
    </g>
</svg>
