<svg xmlns="http://www.w3.org/2000/svg" width="24" height="24" viewBox="0 0 24 24">
    <path fill="#FFF" fill-rule="evenodd" d="M22 17.714C22 18.977 21.105 20 20 20H4c-1.105 0-2-1.023-2-2.286V14l.174-.007a2.01 2.01 0 0 0 .157-.02l-.131.017c.065-.006.13-.016.194-.029l-.063.012c.057-.01.114-.022.17-.036l-.107.024c.05-.01.099-.021.147-.035l-.04.01c.053-.013.106-.029.158-.047l-.118.037c.055-.015.108-.033.16-.053l-.042.016a2 2 0 0 0 .332-3.626l.01.005a1.99 1.99 0 0 0-.342-.157l.043.016a1.984 1.984 0 0 0-.16-.053l.117.037a1.984 1.984 0 0 0-.159-.048l.041.011a1.986 1.986 0 0 0-.147-.035l.106.024a1.989 1.989 0 0 0-.17-.036l.064.012a1.997 1.997 0 0 0-.194-.03l.13.018a2.002 2.002 0 0 0-.155-.02L2 10V6.286C2 5.023 2.895 4 4 4h16c1.105 0 2 1.023 2 2.286V10l-.175.008a2.01 2.01 0 0 0-.158.02l.134-.018a1.997 1.997 0 0 0-.197.03l.063-.012a1.99 1.99 0 0 0-.145.03l.082-.019c-.054.011-.107.024-.16.04l.078-.022c-.058.015-.115.031-.17.05l.092-.029c-.05.015-.099.03-.147.049l.054-.02a2 2 0 0 0-.342 3.63l-.01-.005a1.99 1.99 0 0 0 .352.16l-.053-.019c.048.018.097.034.146.049l-.093-.03c.056.02.113.036.171.05l-.078-.02c.053.015.106.028.16.039l-.082-.018c.048.011.096.021.145.03l-.063-.012c.065.013.13.023.198.03l-.135-.019c.053.01.106.016.16.02L22 14v3.714zM7 5H4c-.552 0-1 .522-1 1.167l.002 3.004a3.001 3.001 0 0 1 0 5.658L3 17.833C3 18.478 3.448 19 4 19h3v-1a1 1 0 0 1 2 0v1h11c.552 0 1-.522 1-1.167V14.83a3.001 3.001 0 0 1 0-5.658V6.167C21 5.522 20.552 5 20 5H9v1a1 1 0 1 1-2 0V5zm1 4a1 1 0 0 1 1 1v4a1 1 0 0 1-2 0v-4a1 1 0 0 1 1-1z"/>
</svg>
