<svg xmlns="http://www.w3.org/2000/svg" width="24" height="24" viewBox="0 0 24 24">
    <path fill="#FFF" fill-rule="evenodd" d="M20 4c1.105 0 2 1.023 2 2.286v11.428C22 18.977 21.105 20 20 20H4c-1.105 0-2-1.023-2-2.286V6.286C2 5.023 2.895 4 4 4h16zM9.74 12.445C9.248 12.795 8.647 13 8 13a2.991 2.991 0 0 1-1.74-.555C5.497 12.88 5 13.593 5 14.4v.6a1 1 0 0 0 1 1h4a1 1 0 0 0 1-1v-.6c0-.807-.497-1.52-1.26-1.955zM18 14h-4a1 1 0 0 0 0 2h4a1 1 0 0 0 0-2zm-2-3h-2a1 1 0 0 0 0 2h2a1 1 0 0 0 0-2zM8 8a2 2 0 1 0 0 4 2 2 0 0 0 0-4z"/>
</svg>
