 <svg xmlns="http://www.w3.org/2000/svg" width="21" height="17" viewBox="0 0 21 17">
    <path fill="#FFF" fill-rule="evenodd" d="M5.5 1.5h-3c-.552 0-1 .522-1 1.167l.002 3.004a3.001 3.001 0 0 1 0 5.658L1.5 14.333c0 .645.448 1.167 1 1.167h3v-1a1 1 0 0 1 2 0v1h11c.552 0 1-.522 1-1.167V11.33a3.001 3.001 0 0 1 0-5.658V2.667c0-.645-.448-1.167-1-1.167h-11v1a1 1 0 1 1-2 0v-1zm1 4a1 1 0 0 1 1 1v4a1 1 0 0 1-2 0v-4a1 1 0 0 1 1-1zM.83 10.473l-.062.009H.765L.7 10.49l.13-.017zm.08-.016H.908l-.014.004.016-.004zm0 0h.006l.021-.006-.027.006zm.25-.068l-.061.019-.058.018.118-.037zm0-3.778l.019.007.011.004-.01-.003a1.983 1.983 0 0 0-.02-.008zM.984 6.56l.003.001.012.003-.015-.004zm-.019-.004l.019.004-.017-.004-.029-.007.027.007zm-.072-.016l.014.003h.003l-.017-.003zm-.18-.028l.01.001.047.006.06.01-.117-.017zm.252 3.933l.004-.001.003-.001-.007.002zm-.016.004l.018-.003.002-.002.008-.002.022-.004-.019.003.06-.014.04-.012.018-.006.023-.007.037-.012a2 2 0 0 0 .467-3.542l-.125-.079-.002-.001-.144-.076c-.05-.023-.101-.045-.153-.064l-.012-.005-.011-.004-.057-.02-.025-.007.046.015-.066-.021-.023-.007-.013-.004-.019-.005-.034-.009-.022-.005-.058-.013-.077-.015.022.004-.056-.009-.026-.004-.018-.002-.029-.004L.7 6.51l.014.001-.04-.003L.5 6.5V2.786C.5 1.523 1.395.5 2.5.5h16c1.105 0 2 1.023 2 2.286V6.5l-.175.008a2.01 2.01 0 0 0-.158.02l.134-.018a1.997 1.997 0 0 0-.197.03l.063-.012a1.99 1.99 0 0 0-.145.03l.082-.019c-.054.011-.107.024-.16.04l.078-.022c-.058.015-.115.031-.17.05l.092-.029c-.05.015-.099.03-.147.049l.054-.02a2 2 0 0 0-.342 3.63l-.01-.005a1.99 1.99 0 0 0 .352.16l-.053-.019c.048.018.097.034.146.049l-.093-.03c.056.02.113.036.171.05l-.078-.02c.053.015.106.028.16.039l-.082-.018c.048.011.096.021.145.03l-.063-.012c.065.013.13.023.198.03l-.135-.019c.053.01.106.016.16.02l.173.008v3.714c0 1.263-.895 2.286-2 2.286h-16c-1.105 0-2-1.023-2-2.286V10.5l.174-.007.026-.003.068-.008.03-.004.055-.01-.022.005.077-.016.058-.013-.016.004zm.13-3.863l-.026-.007.023.007.02.006-.017-.006z"/>
</svg>
