<svg xmlns="http://www.w3.org/2000/svg" width="24" height="24" viewBox="0 0 24 24">
    <path fill="#FFF" fill-rule="nonzero" d="M10.464 4H20c1.105 0 2 1.023 2 2.286v11.428C22 18.977 21.105 20 20 20H4c-1.105 0-2-1.023-2-2.286V6.286C2 5.023 2.895 4 4 4h6.464zm.76 1.143H4c-.552 0-1 .512-1 1.143v11.428c0 .631.448 1.143 1 1.143h7.24l.184-.275a1 1 0 0 0 .005-1.11l-1.263-1.91a1 1 0 0 1 .003-1.109l1.258-1.879a1 1 0 0 0 .002-1.11l-1.262-1.896a1 1 0 0 1 0-1.108l1.264-1.9a1 1 0 0 0 0-1.107l-.206-.31zm2.403 0l.206.31a1 1 0 0 1 0 1.107l-1.264 1.9a1 1 0 0 0 0 1.108l1.264 1.9a1 1 0 0 1-.002 1.11l-1.26 1.882a1 1 0 0 0-.003 1.108l1.266 1.914a1 1 0 0 1-.005 1.11l-.178.265H20c.552 0 1-.512 1-1.143V6.286c0-.631-.448-1.143-1-1.143h-6.373z"/>
</svg>
