<svg xmlns="http://www.w3.org/2000/svg" width="24" height="24" viewBox="0 0 24 24">
    <path fill="#FFF" fill-rule="evenodd" d="M10.463 4l.968 1.453a1 1 0 0 1 0 1.107l-1.264 1.9a1 1 0 0 0 0 1.108l1.262 1.896a1 1 0 0 1-.002 1.11l-1.258 1.88a1 1 0 0 0-.003 1.107l1.263 1.91a1 1 0 0 1-.005 1.111L10.467 20H4c-1.105 0-2-1.023-2-2.286V6.286C2 5.023 2.895 4 4 4h6.463zM20 4c1.105 0 2 1.023 2 2.286v11.428C22 18.977 21.105 20 20 20h-7.12l.95-1.407a1 1 0 0 0 .004-1.11l-1.266-1.915a1 1 0 0 1 .003-1.108l1.26-1.882a1 1 0 0 0 .002-1.11l-1.264-1.9a1 1 0 0 1 0-1.108l1.264-1.9a1 1 0 0 0 0-1.108L12.866 4H20z"/>
</svg>
