<svg xmlns="http://www.w3.org/2000/svg" width="24" height="24" viewBox="0 0 24 24">
    <path fill="#FFF" fill-rule="evenodd" d="M20 4c1.105 0 2 1.023 2 2.286v11.428C22 18.977 21.105 20 20 20H4c-1.105 0-2-1.023-2-2.286V6.286C2 5.023 2.895 4 4 4h16zm0 1.143H4c-.552 0-1 .512-1 1.143v11.428c0 .631.448 1.143 1 1.143h16c.552 0 1-.512 1-1.143V6.286c0-.631-.448-1.143-1-1.143zM18 14a1 1 0 0 1 0 2h-4a1 1 0 0 1 0-2h4zm-8.26-1.555c.763.435 1.26 1.148 1.26 1.955v.6a1 1 0 0 1-1 1H6a1 1 0 0 1-1-1v-.6c0-.807.497-1.52 1.26-1.955.491.35 1.092.555 1.74.555.648 0 1.249-.206 1.74-.555zM16 11a1 1 0 0 1 0 2h-2a1 1 0 0 1 0-2h2zM8 8a2 2 0 1 1 0 4 2 2 0 0 1 0-4z"/>
</svg>
