<svg xmlns="http://www.w3.org/2000/svg" width="20" height="20" viewBox="0 0 20 20">
    <path fill="#727272" fill-rule="evenodd" d="M16.066 2.5c.208 0 .4.112.504.295l1.763 2.933V6.91a1.91 1.91 0 0 1-1.143 1.752v8.248c0 .327-.26.591-.581.591H3.393a.586.586 0 0 1-.582-.59V8.601A1.91 1.91 0 0 1 1.668 6.85v-.885l-.001-.04.001-.04v-.137h.02l.038-.079 2.015-2.913a.579.579 0 0 1 .485-.256zm-.678 5.945a2.3 2.3 0 0 1-1.768 1.084 2.288 2.288 0 0 1-1.914-.789 2.29 2.29 0 0 1-1.725.788 2.29 2.29 0 0 1-1.724-.788c-.48.555-1.19.847-1.914.79a2.3 2.3 0 0 1-1.768-1.085c-.193.139-.41.239-.64.295v7.579h6.085v-4.843c0-.326.26-.59.581-.59h3.43c.321 0 .582.264.582.59v4.843h1.414V8.74a1.847 1.847 0 0 1-.64-.295zm-6.744 2.44c.193 0 .349.157.349.35v2.499a.349.349 0 0 1-.349.349H5.7a.349.349 0 0 1-.35-.35v-2.498c0-.193.157-.35.35-.35h2.945zm4.728-7.204l-1.705.02.64 2.165v1.32c0 .64.512 1.16 1.143 1.16s1.143-.52 1.143-1.16V6.16l-1.22-2.48zm-5.057 0H6.842l-1.473 2.5v.709l.02.236c0 .641.511 1.161 1.143 1.161.631 0 1.143-.52 1.143-1.161v-1.28l.64-2.165z"/>
</svg>
