<svg xmlns="http://www.w3.org/2000/svg" width="24" height="24" viewBox="0 0 24 24">
    <g fill="none" fill-rule="evenodd">
        <path d="M0 0h24v24H0z"/>
        <path fill="#E6E6E6" fill-rule="nonzero" d="M12 24c6.627 0 12-5.373 12-12S18.627 0 12 0 0 5.373 0 12s5.373 12 12 12zm0-1C5.925 23 1 18.075 1 12S5.925 1 12 1s11 4.925 11 11-4.925 11-11 11z"/>
        <path fill="#3D3D3D" d="M16.261 11.819c0-1.026-.29-1.537-.868-1.537-.411 0-.687.151-.824.457v2.276c.15.321.429.48.836.48.553 0 .839-.495.856-1.484v-.192zM18 11.93c0 .897-.196 1.614-.585 2.15-.392.536-.918.805-1.583.805-.511 0-.933-.195-1.263-.584V17h-1.74V8.998h1.625l.052.535a1.585 1.585 0 0 1 1.316-.642c.688 0 1.225.264 1.606.788.38.526.572 1.247.572 2.167v.085zM7.811 10.584h1.147c.343 0 .602-.093.776-.28.174-.188.261-.449.261-.785s-.088-.598-.264-.788c-.175-.192-.433-.288-.773-.288H7.81v2.141zm.981 1.443h-.98v2.752H6V7h2.958c.89 0 1.588.205 2.09.615.502.408.753.987.753 1.733 0 .542-.105.989-.318 1.346-.211.355-.542.643-.992.863l1.57 3.14v.082h-1.943l-1.326-2.752z"/>
    </g>
</svg>
