<svg xmlns="http://www.w3.org/2000/svg" width="30" height="20" viewBox="0 0 30 20">
    <g fill="none" fill-rule="evenodd">
        <rect width="30" height="20" fill="#FFF" rx="4"/>
        <rect width="29" height="19" x=".5" y=".5" stroke="#E3E3E3" rx="4"/>
        <g fill-rule="nonzero">
            <path fill="#F79F1A" d="M22.989 9.644a4.638 4.638 0 0 1-4.634 4.642 4.638 4.638 0 0 1-4.634-4.642A4.638 4.638 0 0 1 18.355 5a4.638 4.638 0 0 1 4.634 4.643z"/>
            <path fill="#EA001B" d="M17.273 9.644a4.638 4.638 0 0 1-4.634 4.642 4.638 4.638 0 0 1-4.634-4.642A4.638 4.638 0 0 1 12.639 5a4.638 4.638 0 0 1 4.634 4.643z"/>
            <path fill="#FF5F01" d="M15.497 5.989a4.636 4.636 0 0 0-1.775 3.654c0 1.484.694 2.805 1.775 3.655a4.638 4.638 0 0 0 1.775-3.655 4.636 4.636 0 0 0-1.775-3.654z"/>
        </g>
    </g>
</svg>
