<svg xmlns="http://www.w3.org/2000/svg" width="30" height="20" viewBox="0 0 30 20">
    <g fill="none" fill-rule="evenodd">
        <rect width="30" height="20" fill="#FFF" rx="4"/>
        <rect width="29" height="19" x=".5" y=".5" stroke="#E3E3E3" rx="4"/>
        <path fill="#005BAC" d="M13.404 7.137l-.933 5.73h1.492l.933-5.73h-1.492zm-2.188 0l-1.422 3.941-.168-.849-.037-.19a4.752 4.752 0 0 0-1.324-1.677 5.968 5.968 0 0 0-.664-.46l1.293 4.965h1.554l2.374-5.73h-1.606zm5.822 1.59c0-.647 1.453-.564 2.092-.212l.212-1.23s-.657-.25-1.341-.25c-.74 0-2.499.323-2.499 1.896 0 1.48 2.064 1.5 2.064 2.276 0 .778-1.851.639-2.462.149l-.222 1.286s.666.324 1.684.324c1.018 0 2.554-.528 2.554-1.962 0-1.49-2.082-1.629-2.082-2.276zm6.088-1.59h-1.2c-.554 0-.688.427-.688.427l-2.225 5.303h1.555l.31-.851h1.897l.175.851h1.37l-1.194-5.73zm-1.817 3.703l.784-2.144.44 2.144H21.31z"/>
        <path fill="#F6AC1D" d="M9.144 7.676s-.061-.517-.72-.517H6.027L6 7.256s1.152.235 2.256 1.114c1.055.84 1.4 1.888 1.4 1.888l-.512-2.582z"/>
    </g>
</svg>
